<svg id="svg" version="1.1" xmlns="http://www.w3.org/2000/svg" xmlns:xlink="http://www.w3.org/1999/xlink" width="400" height="407.0460704607046" viewBox="0, 0, 400,407.0460704607046"><g id="svgg"><path id="path0" d="M66.000 1.234 C 64.350 1.418,62.370 1.758,61.600 1.987 C 60.830 2.217,59.369 2.580,58.353 2.792 C 41.559 6.312,22.415 19.787,11.890 35.494 C 7.455 42.114,2.400 53.190,2.400 56.287 C 2.400 56.701,2.235 57.211,2.033 57.420 C 0.181 59.335,-1.014 235.795,0.731 249.600 C 1.352 254.512,2.778 260.644,4.220 264.600 C 4.781 266.140,5.391 267.868,5.575 268.439 C 11.118 285.656,30.590 304.538,50.000 311.520 C 59.923 315.090,57.719 314.946,106.200 315.186 L 149.400 315.400 153.824 322.000 C 156.257 325.630,163.742 336.790,170.457 346.800 C 177.172 356.810,188.576 373.820,195.799 384.600 C 210.274 406.203,210.114 405.970,210.404 405.987 C 210.626 406.001,210.983 405.534,222.464 390.200 C 233.870 374.966,236.089 372.008,245.939 358.898 C 250.856 352.354,255.986 345.507,257.339 343.682 C 258.693 341.857,260.880 338.951,262.200 337.223 C 263.520 335.496,267.750 329.839,271.600 324.652 L 278.600 315.221 309.123 315.211 C 345.762 315.198,345.765 315.197,356.610 309.983 C 373.461 301.879,388.280 282.662,394.998 260.200 C 395.590 258.220,396.236 256.150,396.434 255.600 C 396.797 254.591,397.788 249.893,398.417 246.200 C 399.477 239.984,399.600 230.210,399.599 152.420 C 399.597 64.940,399.607 65.397,397.492 56.195 C 395.538 47.697,390.673 37.790,384.037 28.800 C 377.355 19.746,364.024 9.429,354.165 5.681 C 349.507 3.910,347.059 3.095,344.800 2.565 C 343.370 2.230,341.480 1.750,340.600 1.499 C 338.674 0.950,70.848 0.691,66.000 1.234 M333.600 18.406 C 357.036 20.441,378.287 41.762,381.716 66.682 C 382.443 71.967,382.411 233.215,381.681 239.400 C 380.044 253.280,374.577 267.613,366.728 278.600 C 364.040 282.362,358.872 287.668,355.400 290.231 C 354.080 291.206,352.819 292.148,352.597 292.326 C 351.651 293.087,346.856 295.327,344.044 296.322 L 341.000 297.400 305.415 297.600 L 269.829 297.800 254.548 318.200 C 246.143 329.420,238.216 340.004,236.933 341.719 C 235.650 343.435,234.420 345.055,234.200 345.319 C 233.980 345.584,228.773 352.505,222.629 360.700 C 216.485 368.895,211.335 375.600,211.184 375.600 C 211.033 375.600,208.052 371.325,204.559 366.100 C 201.067 360.875,198.061 356.420,197.881 356.200 C 197.700 355.980,191.578 346.875,184.276 335.968 C 176.974 325.060,168.210 311.969,164.800 306.876 L 158.600 297.617 112.193 297.609 L 65.785 297.600 61.593 296.636 C 39.198 291.485,21.303 271.377,18.198 247.875 C 17.288 240.991,17.306 72.129,18.217 65.970 C 20.330 51.684,29.344 38.183,43.200 28.548 C 47.428 25.608,53.972 22.392,58.800 20.881 C 64.554 19.079,66.037 18.751,69.838 18.438 C 75.759 17.951,327.998 17.920,333.600 18.406 M91.600 54.368 C 91.600 56.988,90.765 67.963,90.395 70.200 C 88.138 83.867,87.649 107.971,89.406 118.989 C 90.021 122.846,90.318 124.026,92.081 129.600 C 93.509 134.115,96.906 140.565,99.871 144.392 C 108.029 154.918,114.615 161.127,123.475 166.644 C 131.934 171.911,137.797 174.466,149.800 178.116 C 154.216 179.459,162.001 181.207,167.983 182.199 C 169.844 182.508,172.184 182.942,173.183 183.164 C 174.182 183.387,176.331 183.761,177.959 183.997 C 179.586 184.233,181.071 184.520,181.259 184.636 C 181.446 184.752,181.600 201.487,181.600 221.824 L 181.600 258.800 190.397 258.800 L 199.194 258.800 199.297 232.300 C 199.388 208.979,199.472 205.818,200.000 205.950 C 200.330 206.032,201.860 206.451,203.400 206.880 C 221.167 211.830,239.869 212.008,256.400 207.384 C 260.351 206.278,265.391 204.668,265.800 204.380 C 266.020 204.225,266.650 203.966,267.200 203.804 C 267.750 203.643,268.740 203.279,269.400 202.995 C 272.440 201.686,275.453 200.340,276.000 200.046 C 276.330 199.868,277.860 199.047,279.400 198.221 C 287.375 193.946,293.592 188.550,299.019 181.195 C 300.923 178.614,304.801 172.003,305.586 170.000 C 305.887 169.230,306.266 168.420,306.428 168.200 C 306.925 167.524,310.220 158.775,311.174 155.600 C 311.670 153.950,312.234 152.240,312.427 151.800 C 312.955 150.598,315.271 140.947,316.218 136.000 C 316.534 134.350,316.899 132.730,317.029 132.400 C 317.246 131.847,318.026 127.752,319.414 119.870 C 319.717 118.149,320.071 116.407,320.200 116.000 C 320.329 115.593,320.679 113.851,320.978 112.130 C 321.276 110.408,321.750 107.876,322.030 106.503 C 322.311 105.130,322.419 103.886,322.271 103.738 C 321.514 102.981,283.199 104.993,280.200 105.947 C 279.540 106.157,277.920 106.447,276.600 106.592 C 272.012 107.095,259.234 110.415,255.800 111.996 C 255.360 112.198,253.876 112.824,252.503 113.386 C 238.075 119.289,218.391 135.964,203.144 155.200 L 201.400 157.400 200.921 149.600 C 198.698 113.456,185.098 90.398,155.800 73.104 C 148.371 68.718,134.284 63.079,124.400 60.533 C 117.070 58.645,110.572 57.109,106.200 56.232 C 100.532 55.095,96.941 54.336,94.574 53.775 C 91.457 53.036,91.600 53.008,91.600 54.368 M115.292 76.591 C 140.964 83.247,156.685 92.165,168.713 106.896 C 179.229 119.774,184.925 142.085,182.869 162.343 C 182.360 167.355,183.032 166.876,177.800 165.956 C 147.636 160.653,133.608 154.753,121.508 142.283 C 108.699 129.081,105.581 120.153,106.115 98.200 C 106.312 90.141,107.298 76.732,107.800 75.300 C 108.027 74.652,107.388 74.542,115.292 76.591 M300.800 122.553 C 300.800 122.858,300.081 126.503,299.203 130.653 C 291.818 165.539,282.971 179.016,262.479 186.597 C 261.666 186.898,260.010 187.523,258.800 187.985 C 242.940 194.040,221.458 194.408,205.500 188.898 C 203.155 188.088,203.141 188.337,205.818 183.279 C 214.951 166.022,235.828 143.657,252.200 133.590 C 259.484 129.111,268.731 125.886,279.000 124.244 C 287.293 122.917,288.707 122.731,292.800 122.426 C 299.681 121.914,300.800 121.932,300.800 122.553 " stroke="none" fill="#accc64" fill-rule="evenodd"></path><path id="path1" d="M136.332 0.700 C 172.705 0.756,232.105 0.756,268.332 0.700 C 304.560 0.644,274.800 0.598,202.200 0.598 C 129.600 0.598,99.960 0.644,136.332 0.700 M137.932 18.300 C 173.425 18.356,231.385 18.356,266.732 18.300 C 302.080 18.244,273.040 18.198,202.200 18.198 C 131.360 18.198,102.440 18.244,137.932 18.300 M21.385 23.700 L 19.400 25.800 21.500 23.815 C 22.655 22.723,23.600 21.778,23.600 21.715 C 23.600 21.417,23.229 21.749,21.385 23.700 M379.200 23.325 C 379.200 23.394,379.785 23.979,380.500 24.625 L 381.800 25.800 380.625 24.500 C 379.530 23.288,379.200 23.016,379.200 23.325 M33.991 36.300 L 30.600 39.800 34.100 36.409 C 37.351 33.259,37.782 32.800,37.491 32.800 C 37.431 32.800,35.856 34.375,33.991 36.300 M103.000 55.600 C 103.440 55.789,104.160 55.938,104.600 55.932 C 105.243 55.923,105.204 55.857,104.400 55.600 C 103.032 55.162,101.981 55.162,103.000 55.600 M90.901 63.000 C 90.905 63.880,90.987 64.193,91.083 63.695 C 91.179 63.198,91.175 62.478,91.075 62.095 C 90.975 61.713,90.896 62.120,90.901 63.000 M0.501 65.000 C 0.505 65.880,0.587 66.193,0.683 65.695 C 0.779 65.198,0.775 64.478,0.675 64.095 C 0.575 63.713,0.496 64.120,0.501 65.000 M90.520 67.200 C 90.520 68.410,90.595 68.905,90.687 68.300 C 90.778 67.695,90.778 66.705,90.687 66.100 C 90.595 65.495,90.520 65.990,90.520 67.200 M399.324 67.400 C 399.326 68.720,399.401 69.212,399.490 68.493 C 399.579 67.774,399.577 66.694,399.486 66.093 C 399.395 65.492,399.322 66.080,399.324 67.400 M17.796 156.800 C 17.796 205.310,17.843 225.155,17.900 200.900 C 17.957 176.645,17.957 136.955,17.900 112.700 C 17.843 88.445,17.796 108.290,17.796 156.800 M399.699 151.439 C 399.645 196.340,399.519 234.770,399.421 236.839 L 399.241 240.600 399.621 237.000 C 399.851 234.818,399.961 201.179,399.899 151.600 L 399.798 69.800 399.699 151.439 M382.196 152.600 C 382.196 197.920,382.243 216.401,382.300 193.668 C 382.357 170.936,382.357 133.856,382.300 111.268 C 382.243 88.681,382.196 107.280,382.196 152.600 M107.800 75.300 C 107.298 76.732,106.312 90.141,106.115 98.200 C 105.581 120.153,108.699 129.081,121.508 142.283 C 133.608 154.753,147.636 160.653,177.800 165.956 C 183.032 166.876,182.360 167.355,182.869 162.343 C 186.921 122.429,167.002 93.056,127.000 79.954 C 117.764 76.929,108.054 74.575,107.800 75.300 M88.909 82.800 C 88.909 83.790,88.987 84.195,89.082 83.700 C 89.178 83.205,89.178 82.395,89.082 81.900 C 88.987 81.405,88.909 81.810,88.909 82.800 M175.993 88.500 C 179.887 92.494,180.400 92.982,180.400 92.693 C 180.400 92.634,178.465 90.699,176.100 88.393 L 171.800 84.200 175.993 88.500 M88.120 96.400 C 88.120 97.610,88.195 98.105,88.287 97.500 C 88.378 96.895,88.378 95.905,88.287 95.300 C 88.195 94.695,88.120 95.190,88.120 96.400 M306.307 103.890 C 307.026 103.979,308.106 103.977,308.707 103.886 C 309.308 103.795,308.720 103.722,307.400 103.724 C 306.080 103.726,305.588 103.801,306.307 103.890 M291.700 104.687 C 292.305 104.778,293.295 104.778,293.900 104.687 C 294.505 104.595,294.010 104.520,292.800 104.520 C 291.590 104.520,291.095 104.595,291.700 104.687 M88.120 106.800 C 88.120 108.010,88.195 108.505,88.287 107.900 C 88.378 107.295,88.378 106.305,88.287 105.700 C 88.195 105.095,88.120 105.590,88.120 106.800 M287.300 105.076 C 287.685 105.176,288.315 105.176,288.700 105.076 C 289.085 104.975,288.770 104.893,288.000 104.893 C 287.230 104.893,286.915 104.975,287.300 105.076 M292.800 122.426 C 288.707 122.731,287.293 122.917,279.000 124.244 C 268.731 125.886,259.484 129.111,252.200 133.590 C 235.828 143.657,214.951 166.022,205.818 183.279 C 203.141 188.337,203.155 188.088,205.500 188.898 C 221.458 194.408,242.940 194.040,258.800 187.985 C 260.010 187.523,261.666 186.898,262.479 186.597 C 282.971 179.016,291.818 165.539,299.203 130.653 C 300.081 126.503,300.800 122.858,300.800 122.553 C 300.800 121.932,299.681 121.914,292.800 122.426 M316.650 133.650 C 316.317 135.317,316.640 135.640,317.000 134.000 C 317.152 133.309,317.193 132.659,317.091 132.558 C 316.989 132.456,316.791 132.947,316.650 133.650 M215.978 140.300 L 214.600 141.800 216.100 140.422 C 217.496 139.138,217.784 138.800,217.478 138.800 C 217.412 138.800,216.737 139.475,215.978 140.300 M200.931 148.200 C 200.933 149.740,201.005 150.321,201.092 149.491 C 201.179 148.661,201.177 147.401,201.089 146.691 C 201.000 145.981,200.929 146.660,200.931 148.200 M266.500 204.012 C 265.161 204.551,265.411 204.824,266.800 204.340 C 267.460 204.110,268.000 203.849,268.000 203.761 C 268.000 203.524,267.513 203.605,266.500 204.012 M199.467 205.867 C 199.320 206.013,199.200 217.980,199.200 232.459 L 199.200 258.784 190.600 258.904 L 182.000 259.024 190.700 259.012 L 199.400 259.000 199.600 232.300 C 199.710 217.615,199.785 205.600,199.767 205.600 C 199.748 205.600,199.613 205.720,199.467 205.867 M241.300 210.276 C 241.685 210.376,242.315 210.376,242.700 210.276 C 243.085 210.175,242.770 210.093,242.000 210.093 C 241.230 210.093,240.915 210.175,241.300 210.276 M222.100 210.676 C 222.485 210.776,223.115 210.776,223.500 210.676 C 223.885 210.575,223.570 210.493,222.800 210.493 C 222.030 210.493,221.715 210.575,222.100 210.676 M238.100 210.676 C 238.485 210.776,239.115 210.776,239.500 210.676 C 239.885 210.575,239.570 210.493,238.800 210.493 C 238.030 210.493,237.715 210.575,238.100 210.676 M0.285 247.600 C 0.407 249.030,0.572 250.275,0.653 250.367 C 0.920 250.670,0.711 247.422,0.385 246.200 C 0.182 245.444,0.146 245.962,0.285 247.600 M35.000 281.600 C 36.528 283.140,37.869 284.400,37.979 284.400 C 38.089 284.400,36.928 283.140,35.400 281.600 C 33.872 280.060,32.531 278.800,32.421 278.800 C 32.311 278.800,33.472 280.060,35.000 281.600 M22.200 294.000 C 23.728 295.540,25.069 296.800,25.179 296.800 C 25.289 296.800,24.128 295.540,22.600 294.000 C 21.072 292.460,19.731 291.200,19.621 291.200 C 19.511 291.200,20.672 292.460,22.200 294.000 M374.800 296.200 C 373.828 297.190,373.123 298.000,373.233 298.000 C 373.343 298.000,374.228 297.190,375.200 296.200 C 376.172 295.210,376.877 294.400,376.767 294.400 C 376.657 294.400,375.772 295.210,374.800 296.200 M65.505 297.483 C 66.002 297.579,66.722 297.575,67.105 297.475 C 67.487 297.375,67.080 297.296,66.200 297.301 C 65.320 297.305,65.007 297.387,65.505 297.483 M338.100 297.476 C 338.485 297.576,339.115 297.576,339.500 297.476 C 339.885 297.375,339.570 297.293,338.800 297.293 C 338.030 297.293,337.715 297.375,338.100 297.476 M370.975 300.100 L 369.800 301.400 371.100 300.225 C 372.312 299.130,372.584 298.800,372.275 298.800 C 372.206 298.800,371.621 299.385,370.975 300.100 " stroke="none" fill="#ccdc9c" fill-rule="evenodd"></path><path id="path2" d="M0.049 32.500 C 0.077 51.426,0.236 64.058,0.429 62.745 C 5.046 31.312,36.401 2.969,69.400 0.401 C 71.380 0.247,56.575 0.093,36.500 0.060 L 0.000 0.000 0.049 32.500 M335.000 0.399 C 342.535 0.983,353.465 4.252,359.600 7.758 C 360.590 8.324,361.760 8.948,362.200 9.146 C 370.661 12.946,383.868 26.251,390.385 37.540 C 395.172 45.832,398.672 56.268,399.595 65.000 C 399.758 66.540,399.916 52.545,399.946 33.900 L 400.000 0.000 365.700 0.060 C 346.835 0.093,333.020 0.246,335.000 0.399 M67.800 19.182 C 43.779 23.303,24.170 41.210,18.941 63.800 C 17.794 68.756,17.787 244.573,18.934 250.200 C 23.550 272.851,38.796 289.745,60.200 295.926 L 63.800 296.966 111.400 297.183 L 159.000 297.400 166.000 307.854 C 169.850 313.603,177.140 324.453,182.200 331.963 C 187.260 339.474,192.390 347.135,193.600 348.987 C 199.694 358.316,210.947 374.800,211.221 374.800 C 211.393 374.800,218.613 365.353,227.266 353.806 C 235.920 342.260,247.770 326.458,253.600 318.691 C 259.430 310.925,264.560 304.079,265.000 303.479 C 265.440 302.879,266.651 301.266,267.691 299.894 L 269.581 297.400 305.291 297.178 L 341.000 296.956 343.800 295.920 C 348.262 294.268,349.635 293.614,352.400 291.824 C 365.991 283.022,377.054 264.100,380.710 243.400 C 381.709 237.746,381.967 70.843,380.986 65.200 C 378.284 49.657,369.736 36.554,356.104 27.060 C 354.951 26.257,353.934 25.600,353.843 25.600 C 353.751 25.600,352.625 25.014,351.338 24.298 C 346.694 21.711,342.563 20.317,336.200 19.187 C 329.765 18.044,74.459 18.039,67.800 19.182 M99.600 54.386 C 153.708 65.112,179.970 81.787,194.116 114.400 C 198.426 124.338,201.445 140.386,201.601 154.200 L 201.623 156.200 202.712 154.956 C 203.310 154.273,205.060 152.210,206.600 150.374 C 213.387 142.280,221.139 134.552,230.000 127.044 C 243.846 115.312,260.355 108.155,279.400 105.627 C 280.940 105.422,283.640 105.065,285.400 104.832 C 292.723 103.865,322.341 102.608,322.971 103.237 C 323.079 103.346,322.930 104.507,322.639 105.817 C 322.348 107.128,321.701 110.450,321.202 113.200 C 314.628 149.407,309.408 166.737,301.622 178.200 C 301.024 179.080,299.925 180.700,299.179 181.800 C 292.090 192.253,277.705 201.432,259.800 206.929 C 242.378 212.276,220.699 212.533,204.200 207.587 C 202.660 207.126,200.996 206.649,200.503 206.528 L 199.606 206.308 199.503 232.854 L 199.400 259.400 190.502 259.508 L 181.604 259.615 181.502 222.311 L 181.400 185.007 178.400 184.540 C 166.577 182.701,150.323 179.181,146.600 177.653 C 146.160 177.473,144.810 177.009,143.600 176.623 C 120.769 169.335,100.010 151.117,92.276 131.581 C 87.464 119.425,86.321 94.548,89.594 73.200 C 89.813 71.770,90.270 66.748,90.610 62.039 C 91.285 52.696,91.297 52.639,92.544 52.946 C 93.015 53.062,96.190 53.710,99.600 54.386 M399.472 241.500 C 397.864 264.335,383.118 292.206,365.911 304.931 C 352.392 314.929,348.804 315.600,308.870 315.600 L 278.972 315.600 267.823 330.500 C 261.691 338.695,255.667 346.714,254.437 348.320 C 253.207 349.926,251.840 351.757,251.400 352.390 C 250.960 353.022,241.960 365.027,231.400 379.067 C 220.840 393.107,211.888 405.091,211.506 405.697 L 210.812 406.800 305.406 406.800 L 400.000 406.800 400.000 322.400 C 400.000 275.980,399.937 238.000,399.859 238.000 C 399.782 238.000,399.608 239.575,399.472 241.500 M0.040 327.900 L 0.000 406.800 105.300 406.794 C 163.215 406.791,210.420 406.656,210.200 406.494 C 209.595 406.050,212.760 410.736,172.189 350.200 C 152.235 320.426,149.930 317.012,149.298 316.300 C 148.713 315.642,146.219 315.600,107.644 315.600 C 63.732 315.600,62.279 315.543,54.800 313.543 C 27.319 306.195,5.523 281.520,0.615 252.200 C 0.158 249.469,0.073 260.557,0.040 327.900 " stroke="none" fill="#fcfcfc" fill-rule="evenodd"></path><path id="path3" d="M137.268 0.300 C 172.835 0.356,231.155 0.356,266.868 0.300 C 302.580 0.244,273.480 0.198,202.200 0.198 C 130.920 0.198,101.700 0.244,137.268 0.300 M345.000 2.400 C 345.440 2.589,346.070 2.744,346.400 2.744 C 346.778 2.744,346.704 2.617,346.200 2.400 C 345.760 2.211,345.130 2.056,344.800 2.056 C 344.422 2.056,344.496 2.183,345.000 2.400 M373.600 17.325 C 373.600 17.394,374.185 17.979,374.900 18.625 L 376.200 19.800 375.025 18.500 C 373.930 17.288,373.600 17.016,373.600 17.325 M61.000 20.400 C 60.496 20.617,60.422 20.744,60.800 20.744 C 61.130 20.744,61.760 20.589,62.200 20.400 C 62.704 20.183,62.778 20.056,62.400 20.056 C 62.070 20.056,61.440 20.211,61.000 20.400 M20.786 23.900 L 18.600 26.200 20.900 24.014 C 23.037 21.982,23.383 21.600,23.086 21.600 C 23.024 21.600,21.989 22.635,20.786 23.900 M52.800 23.400 C 52.250 23.714,51.980 23.972,52.200 23.972 C 52.420 23.972,53.050 23.714,53.600 23.400 C 54.150 23.086,54.420 22.828,54.200 22.828 C 53.980 22.828,53.350 23.086,52.800 23.400 M380.000 23.725 C 380.000 23.794,380.585 24.379,381.300 25.025 L 382.600 26.200 381.425 24.900 C 380.330 23.688,380.000 23.416,380.000 23.725 M365.400 34.800 C 366.259 35.680,367.052 36.400,367.162 36.400 C 367.272 36.400,366.659 35.680,365.800 34.800 C 364.941 33.920,364.148 33.200,364.038 33.200 C 363.928 33.200,364.541 33.920,365.400 34.800 M33.775 36.900 L 32.600 38.200 33.900 37.025 C 34.615 36.379,35.200 35.794,35.200 35.725 C 35.200 35.416,34.870 35.688,33.775 36.900 M91.350 53.387 C 91.226 53.710,91.217 54.205,91.331 54.487 C 91.444 54.769,91.551 54.608,91.568 54.129 C 91.586 53.650,91.915 53.176,92.300 53.076 C 92.956 52.904,92.955 52.890,92.287 52.846 C 91.896 52.821,91.474 53.064,91.350 53.387 M397.256 54.400 C 397.256 54.730,397.411 55.360,397.600 55.800 C 397.817 56.304,397.944 56.378,397.944 56.000 C 397.944 55.670,397.789 55.040,397.600 54.600 C 397.383 54.096,397.256 54.022,397.256 54.400 M90.914 58.200 C 90.917 59.300,90.995 59.703,91.087 59.095 C 91.179 58.486,91.177 57.586,91.082 57.095 C 90.987 56.603,90.911 57.100,90.914 58.200 M90.509 63.200 C 90.509 64.190,90.587 64.595,90.682 64.100 C 90.778 63.605,90.778 62.795,90.682 62.300 C 90.587 61.805,90.509 62.210,90.509 63.200 M381.796 152.800 C 381.796 198.230,381.843 216.815,381.900 194.100 C 381.957 171.385,381.957 134.215,381.900 111.500 C 381.843 88.785,381.796 107.370,381.796 152.800 M89.293 75.600 C 89.293 76.370,89.375 76.685,89.476 76.300 C 89.576 75.915,89.576 75.285,89.476 74.900 C 89.375 74.515,89.293 74.830,89.293 75.600 M176.393 88.500 C 180.287 92.494,180.800 92.982,180.800 92.693 C 180.800 92.634,178.865 90.699,176.500 88.393 L 172.200 84.200 176.393 88.500 M88.101 90.600 C 88.105 91.480,88.187 91.793,88.283 91.295 C 88.379 90.798,88.375 90.078,88.275 89.695 C 88.175 89.313,88.096 89.720,88.101 90.600 M87.766 101.600 C 87.766 105.670,87.825 107.335,87.898 105.300 C 87.971 103.265,87.971 99.935,87.898 97.900 C 87.825 95.865,87.766 97.530,87.766 101.600 M321.400 103.089 C 321.840 103.198,322.425 103.469,322.700 103.692 C 323.038 103.967,323.200 103.967,323.200 103.692 C 323.200 103.213,322.212 102.781,321.267 102.846 C 320.775 102.881,320.810 102.944,321.400 103.089 M307.717 103.497 C 309.211 103.574,311.551 103.574,312.917 103.496 C 314.282 103.418,313.060 103.355,310.200 103.355 C 307.340 103.356,306.222 103.420,307.717 103.497 M299.905 103.883 C 300.402 103.979,301.122 103.975,301.505 103.875 C 301.887 103.775,301.480 103.696,300.600 103.701 C 299.720 103.705,299.407 103.787,299.905 103.883 M292.900 104.276 C 293.285 104.376,293.915 104.376,294.300 104.276 C 294.685 104.175,294.370 104.093,293.600 104.093 C 292.830 104.093,292.515 104.175,292.900 104.276 M287.505 104.683 C 288.002 104.779,288.722 104.775,289.105 104.675 C 289.487 104.575,289.080 104.496,288.200 104.501 C 287.320 104.505,287.007 104.587,287.505 104.683 M284.305 105.083 C 284.802 105.179,285.522 105.175,285.905 105.075 C 286.287 104.975,285.880 104.896,285.000 104.901 C 284.120 104.905,283.807 104.987,284.305 105.083 M88.093 111.600 C 88.093 112.370,88.175 112.685,88.276 112.300 C 88.376 111.915,88.376 111.285,88.276 110.900 C 88.175 110.515,88.093 110.830,88.093 111.600 M201.280 153.100 C 201.195 156.585,201.405 156.956,202.638 155.500 L 203.400 154.600 202.518 155.346 L 201.635 156.092 201.498 152.946 L 201.361 149.800 201.280 153.100 M112.200 158.800 C 113.059 159.680,113.852 160.400,113.962 160.400 C 114.072 160.400,113.459 159.680,112.600 158.800 C 111.741 157.920,110.948 157.200,110.838 157.200 C 110.728 157.200,111.341 157.920,112.200 158.800 M295.775 185.700 L 294.600 187.000 295.900 185.825 C 296.615 185.179,297.200 184.594,297.200 184.525 C 297.200 184.216,296.870 184.488,295.775 185.700 M227.682 211.096 C 229.158 211.173,231.678 211.173,233.282 211.097 C 234.887 211.021,233.680 210.958,230.600 210.958 C 227.520 210.957,226.207 211.019,227.682 211.096 M399.693 236.800 C 399.693 237.570,399.775 237.885,399.876 237.500 C 399.976 237.115,399.976 236.485,399.876 236.100 C 399.775 235.715,399.693 236.030,399.693 236.800 M190.400 259.200 L 181.400 259.423 190.276 259.512 C 195.860 259.567,199.244 259.452,199.400 259.200 C 199.536 258.980,199.592 258.840,199.524 258.888 C 199.456 258.937,195.350 259.077,190.400 259.200 M22.200 294.400 C 23.283 295.500,24.260 296.400,24.370 296.400 C 24.480 296.400,23.683 295.500,22.600 294.400 C 21.517 293.300,20.540 292.400,20.430 292.400 C 20.320 292.400,21.117 293.300,22.200 294.400 M374.778 296.700 L 373.400 298.200 374.900 296.822 C 376.296 295.538,376.584 295.200,376.278 295.200 C 376.212 295.200,375.537 295.875,374.778 296.700 M370.778 300.700 L 369.400 302.200 370.900 300.822 C 372.296 299.538,372.584 299.200,372.278 299.200 C 372.212 299.200,371.537 299.875,370.778 300.700 M355.200 311.000 C 354.650 311.314,354.380 311.572,354.600 311.572 C 354.820 311.572,355.450 311.314,356.000 311.000 C 356.550 310.686,356.820 310.428,356.600 310.428 C 356.380 310.428,355.750 310.686,355.200 311.000 M106.771 315.500 C 145.837 315.597,148.595 315.649,149.371 316.302 C 150.199 316.999,150.199 316.999,149.438 316.100 L 148.676 315.200 106.838 315.298 L 65.000 315.396 106.771 315.500 M294.300 315.500 C 302.715 315.560,316.485 315.560,324.900 315.500 C 333.315 315.440,326.430 315.390,309.600 315.390 C 292.770 315.390,285.885 315.440,294.300 315.500 M255.600 346.400 C 255.130 347.060,254.836 347.600,254.946 347.600 C 255.056 347.600,255.530 347.060,256.000 346.400 C 256.470 345.740,256.764 345.200,256.654 345.200 C 256.544 345.200,256.070 345.740,255.600 346.400 " stroke="none" fill="#dbebc3" fill-rule="evenodd"></path><path id="path4" d="M377.200 21.000 C 377.946 21.770,378.647 22.400,378.757 22.400 C 378.867 22.400,378.346 21.770,377.600 21.000 C 376.854 20.230,376.153 19.600,376.043 19.600 C 375.933 19.600,376.454 20.230,377.200 21.000 M88.093 93.200 C 88.093 93.970,88.175 94.285,88.276 93.900 C 88.376 93.515,88.376 92.885,88.276 92.500 C 88.175 92.115,88.093 92.430,88.093 93.200 M316.500 103.491 C 317.325 103.578,318.675 103.578,319.500 103.491 C 320.325 103.405,319.650 103.334,318.000 103.334 C 316.350 103.334,315.675 103.405,316.500 103.491 M302.700 103.882 C 303.195 103.978,304.005 103.978,304.500 103.882 C 304.995 103.787,304.590 103.709,303.600 103.709 C 302.610 103.709,302.205 103.787,302.700 103.882 M108.600 155.200 C 109.683 156.300,110.660 157.200,110.770 157.200 C 110.880 157.200,110.083 156.300,109.000 155.200 C 107.917 154.100,106.940 153.200,106.830 153.200 C 106.720 153.200,107.517 154.100,108.600 155.200 M292.585 188.900 L 290.600 191.000 292.700 189.015 C 294.651 187.171,294.983 186.800,294.685 186.800 C 294.622 186.800,293.677 187.745,292.585 188.900 M90.300 297.500 C 102.895 297.559,123.505 297.559,136.100 297.500 C 148.695 297.441,138.390 297.393,113.200 297.393 C 88.010 297.393,77.705 297.441,90.300 297.500 M286.930 297.500 C 296.351 297.560,311.651 297.560,320.930 297.500 C 330.208 297.440,322.500 297.391,303.800 297.391 C 285.100 297.391,277.508 297.440,286.930 297.500 " stroke="none" fill="#cce4b4" fill-rule="evenodd"></path></g></svg>