<svg
   xmlns:dc="http://purl.org/dc/elements/1.1/"
   xmlns:cc="http://creativecommons.org/ns#"
   xmlns:rdf="http://www.w3.org/1999/02/22-rdf-syntax-ns#"
   xmlns:svg="http://www.w3.org/2000/svg"
   xmlns="http://www.w3.org/2000/svg"
   xmlns:sodipodi="http://sodipodi.sourceforge.net/DTD/sodipodi-0.dtd"
   xmlns:inkscape="http://www.inkscape.org/namespaces/inkscape"
   width="80mm"
   height="70mm"
   viewBox="0 0 80 70"
   version="1.1"
   id="svg120"
   sodipodi:docname="allotme-logo.svg"
   inkscape:version="1.0.1 (3bc2e81, 2020-09-07)">
  <sodipodi:namedview
     pagecolor="#ffffff"
     bordercolor="#666666"
     borderopacity="1"
     objecttolerance="10"
     gridtolerance="10"
     guidetolerance="10"
     inkscape:pageopacity="0"
     inkscape:pageshadow="2"
     inkscape:window-width="1920"
     inkscape:window-height="1016"
     id="namedview104"
     showgrid="false"
     inkscape:zoom="1.5970864"
     inkscape:cx="257.00787"
     inkscape:cy="260.7874"
     inkscape:window-x="0"
     inkscape:window-y="27"
     inkscape:window-maximized="1"
     inkscape:current-layer="svg120" />
  <defs
     id="defs114">
    <clipPath
       clipPathUnits="userSpaceOnUse"
       id="clipPath44">
      <path
         d="M 0,800 H 800 V 0 H 0 Z"
         id="path42" />
    </clipPath>
  </defs>
  <metadata
     id="metadata117">
    <rdf:RDF>
      <cc:Work
         rdf:about="">
        <dc:format>image/svg+xml</dc:format>
        <dc:type
           rdf:resource="http://purl.org/dc/dcmitype/StillImage" />
        <dc:title></dc:title>
      </cc:Work>
    </rdf:RDF>
  </metadata>
  <g
     id="layer1"
     transform="translate(-30.258481,-18.911966)">
    <g
       id="g38"
       transform="matrix(0.35277777,0,0,-0.35277777,-76.384758,185.28664)">
      <g
         id="g40"
         clip-path="url(#clipPath44)">
        <g
           id="g46"
           transform="translate(596.0771,298.8105)" />
        <g
           id="g50"
           transform="translate(596.0771,298.8105)" />
        <g
           id="g54"
           transform="translate(401.3437,351.5117)">
          <path
             d="m 0,0 c 0,0 1.364,14.912 1.412,15.323 1.702,18.564 -3.209,42.908 -15.031,57.6 -19.261,23.933 -45.21,31.232 -74.426,37.094 -1.653,-21.043 -7.49,-51.884 5.257,-70.615 C -62.069,8.904 -34.192,5.668 0,0 v -79.439"
             style="fill:#c7df9d;fill-opacity:1;fill-rule:nonzero;stroke:#a5cf5f;stroke-width:16;stroke-linecap:butt;stroke-linejoin:miter;stroke-miterlimit:10;stroke-dasharray:none;stroke-opacity:1"
             id="path56" />
        </g>
        <g
           id="g58"
           transform="translate(466.877,406.5811)">
          <path
             d="M 0,0 C 15.807,6.275 35.512,7.339 52.15,7.729 46.377,-22.586 41.519,-53.964 18.432,-66.93 6.497,-73.641 -9.647,-79.764 -29.562,-79.078 c -4.098,0.146 -16.041,0.62 -31.133,6.938 -10.992,4.71 27.027,57.445 58.46,71.209 C -1.511,-0.593 -0.778,-0.296 0,0"
             style="fill:#c7df9d;fill-opacity:1;fill-rule:nonzero;stroke:none"
             id="path60" />
        </g>
        <g
           id="g62"
           transform="translate(466.877,406.5811)">
          <path
             d="M 0,0 C 15.807,6.275 35.512,7.339 52.15,7.729 46.377,-22.586 41.519,-53.964 18.432,-66.93 6.497,-73.641 -9.647,-79.764 -29.562,-79.078 c -4.098,0.146 -16.041,0.62 -31.133,6.938 -10.992,4.71 27.027,57.445 58.46,71.209 C -1.511,-0.593 -0.778,-0.296 0,0 Z"
             style="fill:none;stroke:#a5cf5f;stroke-width:16;stroke-linecap:butt;stroke-linejoin:miter;stroke-miterlimit:10;stroke-dasharray:none;stroke-opacity:1"
             id="path64" />
        </g>
      </g>
    </g>
  </g>
</svg>
